# xmcd
#
# Track frame offsets: 
#        150
#        25546
#        38400
#        54558
#        71163
#        96362
#        112569
#        138282
#        157252
#        178899
#        191416
#
# Disc length: 2952 seconds
#
# Revision: 0
# Processed by: cddbd v1.5.2PL0 Copyright (c) Steve Scherf et al.
# Submitted via: ExactAudioCopy v1.0b4
#
DISCID=8c0b860b
DTITLE=Bob Kamoske - Lost Time
DYEAR=2019
DGENRE=Blues
TTITLE0=Lost Time
TTITLE1=Lonley Nights
TTITLE2=Once Or Twice
TTITLE3=Lie, Lie, Lie
TTITLE4=Half A Chance
TTITLE5=Slip Away And Come To Me
TTITLE6=Hang My Head And Cry
TTITLE7=Holding You Tonight
TTITLE8=Where The River Flows
TTITLE9=Sitting Back In The Gates Of Eden
TTITLE10=Alley Ghost
EXTD=
EXTT0=
EXTT1=
EXTT2=
EXTT3=
EXTT4=
EXTT5=
EXTT6=
EXTT7=
EXTT8=
EXTT9=
EXTT10=
PLAYORDER=
